<?xml version="1.0" encoding="UTF-8"?>
<svg width="1200px" height="1200px" viewBox="0 0 1200 1200" version="1.1" xmlns="http://www.w3.org/2000/svg" xmlns:xlink="http://www.w3.org/1999/xlink">
    <!-- Generator: Sketch 54.1 (76490) - https://sketchapp.com -->
    <title>Group 37</title>
    <desc>Created with Sketch.</desc>
    <g id="Page-2" stroke="none" stroke-width="1" fill="none" fill-rule="evenodd">
        <g id="Artboard" transform="translate(-1799.000000, -4776.000000)">
            <g id="Group-37" transform="translate(1799.000000, 4776.000000)">
                <rect id="Rectangle-Copy-27" x="0" y="0" width="1200" height="1200"></rect>
                <g id="资源-119" transform="translate(88.000000, 260.000000)" fill-rule="nonzero">
                    <rect id="Rectangle" fill="#FFFFFF" x="91" y="390" width="877" height="283" rx="64"></rect>
                    <path d="M900.131245,628.273077 L164.868681,628.273077 C125.713735,628.273077 94,603.326923 94,556 L94,600.230769 C94,639.315536 125.728989,671 164.868681,671 L900.131245,671 C939.270937,671 970.999926,639.315536 970.999926,600.230769 L971,556 C971.055798,595.3546 939.533612,627.501457 900.131245,628.273077 Z" id="Path" fill="#D4D6D6"></path>
                    <path d="M896.247525,681 L160.752475,681 C116.706399,681 81,645.327629 81,601.323529 L81,459.676471 C81,415.672371 116.706399,380 160.752475,380 L896.247525,380 C940.293601,380 976,415.672371 976,459.676471 L976,601.323529 C976,645.327629 940.293601,681 896.247525,681 L896.247525,681 Z M160.752475,397.705882 C126.494416,397.705882 98.7227723,425.45106 98.7227723,459.676471 L98.7227723,601.323529 C98.7227723,635.54894 126.494416,663.294118 160.752475,663.294118 L896.247525,663.294118 C930.505584,663.294118 958.277228,635.54894 958.277228,601.323529 L958.277228,459.676471 C958.277228,425.45106 930.505584,397.705882 896.247525,397.705882 L160.752475,397.705882 Z" id="Shape" fill="#233E49"></path>
                    <rect id="Rectangle" fill="#233E49" x="152" y="487" width="408" height="89" rx="32"></rect>
                    <path d="M675,530.5 C675,550.106109 659.106109,566 639.5,566 C619.893891,566 604,550.106109 604,530.5 C604,510.893891 619.893891,495 639.5,495 C659.106109,495 675,510.893891 675,530.5 Z" id="Path" fill="#F74541"></path>
                    <rect id="Rectangle" fill="#FFFFFF" x="206" y="336" width="107" height="44"></rect>
                    <rect id="Rectangle" fill="#FFFFFF" x="754" y="336" width="107" height="44"></rect>
                    <path d="M782,530.5 C782,550.106109 766.106109,566 746.5,566 C726.893891,566 711,550.106109 711,530.5 C711,510.893891 726.893891,495 746.5,495 C766.106109,495 782,510.893891 782,530.5 Z" id="Path" fill="#92C438"></path>
                    <path d="M887,530.5 C887,550.106109 871.106109,566 851.5,566 C831.893891,566 816,550.106109 816,530.5 C816,510.893891 831.893891,495 851.5,495 C871.106109,495 887,510.893891 887,530.5 Z" id="Path" fill="#FBD000"></path>
                    <path d="M312.142857,398 L205.857143,398 C200.965478,398 197,394.034522 197,389.142857 L197,344.857143 C197,339.965478 200.965478,336 205.857143,336 L312.142857,336 C317.034522,336 321,339.965478 321,344.857143 L321,389.142857 C321,394.034522 317.034522,398 312.142857,398 Z M214.714286,380.285714 L303.285714,380.285714 L303.285714,353.714286 L214.714286,353.714286 L214.714286,380.285714 Z" id="Shape" fill="#233E49"></path>
                    <path d="M861.142857,398 L754.857143,398 C749.965478,398 746,394.034522 746,389.142857 L746,344.857143 C746,339.965478 749.965478,336 754.857143,336 L861.142857,336 C866.034522,336 870,339.965478 870,344.857143 L870,389.142857 C870,394.034522 866.034522,398 861.142857,398 Z M763.714286,380.285714 L852.285714,380.285714 L852.285714,353.714286 L763.714286,353.714286 L763.714286,380.285714 Z" id="Shape" fill="#233E49"></path>
                    <path d="M259,345 C254.029437,345 250,341.039442 250,336.153846 L250,8.84615385 C250,3.96055798 254.029437,0 259,0 C263.970563,0 268,3.96055798 268,8.84615385 L268,336.153846 C268,341.039442 263.970563,345 259,345 Z" id="Path" fill="#233E49"></path>
                    <path d="M808,345 C803.029437,345 799,341.039442 799,336.153846 L799,8.84615385 C799,3.96055798 803.029437,0 808,0 C812.970563,0 817,3.96055798 817,8.84615385 L817,336.153846 C817,341.039442 812.970563,345 808,345 Z" id="Path" fill="#233E49"></path>
                    <path d="M1036.14932,681 L8.8506818,681 C3.96258522,681 0,676.970563 0,672 C0,667.029437 3.96258522,663 8.8506818,663 L1036.14932,663 C1041.03741,663 1045,667.029437 1045,672 C1045,676.970563 1041.03741,681 1036.14932,681 Z" id="Path" fill="#233E49"></path>
                    <path d="M640.50065,575 C622.502344,575 606.276266,564.158082 599.388612,547.529814 C592.500958,530.901547 596.308134,511.761583 609.034858,499.034858 C621.761583,486.308134 640.901547,482.500958 657.529814,489.388612 C674.158082,496.276266 685,512.502344 685,530.50065 C685,555.076963 665.076963,575 640.50065,575 Z M640.50065,505.403017 C630.261469,505.403271 621.033995,511.580918 617.132467,521.047645 C613.230939,530.514371 615.426239,541.399694 622.691972,548.61426 C629.957706,555.828825 640.85827,557.947144 650.297188,553.978811 C659.736106,550.010479 665.848388,540.739578 665.776281,530.50065 C665.776281,523.797136 663.11332,517.368181 658.37322,512.628081 C653.63312,507.88798 647.204164,505.22502 640.50065,505.22502 L640.50065,505.403017 Z" id="Shape" fill="#233E49"></path>
                    <path d="M745.375274,576 C721.159064,575.656107 701.773558,555.805979 702.001998,531.587175 C702.230439,507.368372 721.98693,487.887482 746.205319,488.000489 C770.423707,488.113496 789.997559,507.777906 790,531.997787 C789.658349,556.400258 769.778898,576.002392 745.375274,576 Z M745.375274,507.095926 C731.610363,507.292681 720.596918,518.585274 720.744002,532.351503 C720.891087,546.117733 732.143301,557.172405 745.909273,557.074978 C759.675245,556.97755 770.769878,545.76472 770.722118,531.997787 C770.675047,525.330403 767.975174,518.956181 763.219061,514.283566 C758.462949,509.610951 752.042105,507.024576 745.375274,507.095926 L745.375274,507.095926 Z" id="Shape" fill="#233E49"></path>
                    <path d="M852.5,576 C827.923329,576 808,556.076671 808,531.5 C808,506.923329 827.923329,487 852.5,487 C877.076671,487 897,506.923329 897,531.5 C897,556.076671 877.076671,576 852.5,576 Z M852.5,506.224 C838.540451,506.224 827.224,517.540451 827.224,531.5 C827.224,545.459549 838.540451,556.776 852.5,556.776 C866.459549,556.776 877.776,545.459549 877.776,531.5 C877.776,517.540451 866.459549,506.224 852.5,506.224 L852.5,506.224 Z" id="Shape" fill="#233E49"></path>
                    <path d="M923.157895,592 C918.274535,592 914.315789,588.041255 914.315789,583.157895 L914.315789,486.955789 C914.315789,448.492632 900.522105,441.684211 871.52,441.684211 L604.842105,441.684211 C599.958745,441.684211 596,437.725465 596,432.842105 C596,427.958745 599.958745,424 604.842105,424 L871.696842,424 C914.315789,424 932,442.214737 932,486.955789 L932,583.157895 C932,588.041255 928.041255,592 923.157895,592 Z" id="Path" fill="#141325" opacity="0.5"></path>
                    <path d="M533.111111,442 L390.888889,442 C385.979691,442 382,437.970563 382,433 C382,428.029437 385.979691,424 390.888889,424 L533.111111,424 C538.020309,424 542,428.029437 542,433 C542,437.970563 538.020309,442 533.111111,442 Z" id="Path" fill="#141325" opacity="0.5"></path>
                </g>
            </g>
        </g>
    </g>
</svg>